<svg xmlns="http://www.w3.org/2000/svg" viewBox="0 0 16 16">
    <path style="line-height:normal;text-indent:0;text-align:start;text-decoration-line:none;text-decoration-style:solid;text-decoration-color:#000;text-transform:none;block-progression:tb;isolation:auto;mix-blend-mode:normal" d="M 5.40625 3 C 4.7758257 3 4.2312562 3.4224167 4.0605469 4 L 3.4863281 4 C 3.2293281 4 2.9777187 4.0655 2.7617188 4.1875 C 2.6937187 4.2245 2.6282187 4.2675469 2.5742188 4.3105469 C 2.5682187 4.3145469 1.038 5.5343281 0 6.3613281 L 0 7.6425781 L 3.2441406 5.0625 C 3.3171406 5.0205 3.4003281 5 3.4863281 5 L 4 5 L 4 8.6660156 L 3.0664062 9.0351562 L 3.4335938 9.9648438 L 8.3105469 8.0371094 L 8.3125 8.0371094 C 8.3711923 8.0133301 8.4321629 8 8.5 8 C 8.7814686 8 9 8.2185314 9 8.5 C 9 8.6513363 8.9344995 8.7794152 8.8320312 8.8710938 L 7.828125 9.5976562 L 7.8242188 9.5996094 C 6.8188892 10.353612 6.6284804 10.541251 5.6269531 11.667969 C 4.7002622 12.710496 3.875 13 3 13 L 0 13 L 0 14 L 3 14 C 4.125 14 5.2997378 13.539504 6.3730469 12.332031 C 7.0082913 11.617381 7.3219211 11.305051 7.6796875 11 L 13.59375 11 C 14.355083 11 15 10.388193 15 9.625 L 15 4.375 C 15 3.6118068 14.355083 3 13.59375 3 L 5.40625 3 z M 5.40625 4 L 13.59375 4 C 13.832417 4 14 4.1721932 14 4.375 L 14 5 L 5 5 L 5 4.5 L 5 4.375 C 5 4.1721932 5.1675833 4 5.40625 4 z M 5 6 L 14 6 L 14 9.625 C 14 9.8278068 13.832417 10 13.59375 10 L 8.9765625 10 L 9.4726562 9.640625 L 9.4921875 9.625 C 9.8037804 9.3508582 10 8.9450424 10 8.5 C 10 7.6774686 9.3225314 7 8.5 7 C 8.3018371 7 8.1108108 7.0391542 7.9375 7.109375 L 5 8.2714844 L 5 6 z" color="#000" font-weight="400" font-family="sans-serif" white-space="normal" overflow="visible"/>
</svg>
